<?xml version="1.0" encoding="iso-8859-1"?>
<!-- Generator: Adobe Illustrator 19.0.0, SVG Export Plug-In . SVG Version: 6.00 Build 0)  -->
<svg version="1.1" id="Layer_1" xmlns="http://www.w3.org/2000/svg" xmlns:xlink="http://www.w3.org/1999/xlink" x="0px" y="0px"
	 viewBox="0 0 512 512" style="enable-background:new 0 0 512 512;" xml:space="preserve">
<g>
	<g>
		<g>
			<path d="M422.741,42.667h-60.07V32.491C362.671,14.543,348.128,0,330.18,0H181.828c-17.947,0-32.491,14.543-32.491,32.491v10.176
				H89.259c-25.734,0-46.592,20.858-46.592,46.592v376.149c0,25.734,20.858,46.592,46.592,46.592h333.483
				c25.734,0,46.592-20.858,46.592-46.592V89.259C469.333,63.525,448.475,42.667,422.741,42.667z M192.004,42.667H320v42.667
				H192.004V42.667z M426.667,465.408c0,2.17-1.755,3.925-3.925,3.925H89.259c-2.17,0-3.925-1.755-3.925-3.925V89.259
				c0-2.17,1.755-3.925,3.925-3.925h60.075v10.176c0,17.947,14.543,32.491,32.491,32.491h0.004h148.348h0.004
				c17.947,0,32.491-14.543,32.491-32.491V85.333h60.07c2.17,0,3.925,1.755,3.925,3.925V465.408z"/>
			<rect x="128" y="170.667" width="85.333" height="85.333"/>
			<path d="M362.667,192h-85.333C265.551,192,256,201.551,256,213.333c0,11.782,9.551,21.333,21.333,21.333h85.333
				c11.782,0,21.333-9.551,21.333-21.333C384,201.551,374.449,192,362.667,192z"/>
			<path d="M326.248,304.915L256,375.163l-27.582-27.582c-8.331-8.331-21.839-8.331-30.17,0c-8.331,8.331-8.331,21.839,0,30.17
				l42.667,42.667c8.331,8.331,21.839,8.331,30.17,0l85.333-85.333c8.331-8.331,8.331-21.839,0-30.17
				S334.58,296.584,326.248,304.915z"/>
		</g>
	</g>
</g>
<g>
</g>
<g>
</g>
<g>
</g>
<g>
</g>
<g>
</g>
<g>
</g>
<g>
</g>
<g>
</g>
<g>
</g>
<g>
</g>
<g>
</g>
<g>
</g>
<g>
</g>
<g>
</g>
<g>
</g>
</svg>
